 <svg  version="1.0" xmlns="http://www.w3.org/2000/svg"  width="272.000000pt" height="272.000000pt" viewBox="0 0 272.000000 272.000000"  preserveAspectRatio="xMidYMid meet">  <g transform="translate(0.000000,272.000000) scale(0.100000,-0.100000)" fill="#64ffda" stroke="none"> <path d="M185 2558 c-3 -7 -4 -546 -3 -1198 l3 -1185 713 -3 712 -2 0 508 0 508 70 69 71 70 17 -22 c9 -12 78 -103 152 -202 l135 -180 97 0 97 -1 -195 257 -195 256 58 61 c32 34 116 121 188 194 l130 132 -100 0 -100 -1 -210 -224 -210 -223 -3 224 -2 224 -80 0 -80 0 0 -745 0 -745 -555 0 -555 0 0 1040 0 1040 320 0 320 0 0 80 0 80 -395 0 c-307 0 -397 -3 -400 -12z"/> <path d="M1138 1885 l-3 -684 -239 309 -239 310 -74 0 -73 0 0 -450 0 -450 75 0 75 0 2 321 3 321 249 -321 248 -321 69 0 69 0 0 745 0 745 560 0 560 0 0 -1040 0 -1040 -325 0 -325 0 0 -80 0 -80 403 2 402 3 0 1195 0 1195 -717 3 -718 2 -2 -685z"/> </g> </svg> 